@startuml
'https://plantuml.com/class-diagram

abstract class Component {}
class BoardPosition{
float x
float y
}
class PathPosition{
int distance
}
class EnemyHealth{
float health
}
class PlayerHealth{
float health
}
class Money{
float money
}
class Speed
class Sprite{
String imageName
}
class Price{
float price
}
class SupportFunction{
function supportFunction
}
class Projectile{
float damage
float cooldown
float cooldownRemaining
float range
}

Component <|-- PathPosition
Component <|-- SupportFunction
Component <|-- Price
Component <|-- BoardPosition
Component <|-- EnemyHealth
Component <|-- Sprite
Component <|-- Speed
Component <|-- Projectile
Component <|-- PlayerHealth
Component <|-- Money

'----------------------------
entity AttackTower
entity SupportTower
entity Enemy
entity Player

SupportFunction --* SupportTower
Price --* AttackTower
Price --* SupportTower
BoardPosition --* AttackTower
BoardPosition --* SupportTower
PathPosition --* Enemy
EnemyHealth --* Enemy
Sprite --* Enemy
Sprite --* AttackTower
Sprite --* SupportTower
Speed --* Enemy
Projectile --* AttackTower
PlayerHealth --* Player
Money --* Player



@enduml